<svg width="18" height="18" viewBox="0 0 18 18" fill="none" xmlns="http://www.w3.org/2000/svg">
<g clip-path="url(#clip0_1642_9672)">
<path d="M15 3.00049H3C2.175 3.00049 1.5075 3.67549 1.5075 4.50049L1.5 13.5005C1.5 14.3255 2.175 15.0005 3 15.0005H15C15.825 15.0005 16.5 14.3255 16.5 13.5005V4.50049C16.5 3.67549 15.825 3.00049 15 3.00049ZM14.7 6.18799L9.3975 9.50299C9.1575 9.65299 8.8425 9.65299 8.6025 9.50299L3.3 6.18799C3.1125 6.06799 3 5.86549 3 5.64799C3 5.14549 3.5475 4.84549 3.975 5.10799L9 8.25049L14.025 5.10799C14.4525 4.84549 15 5.14549 15 5.64799C15 5.86549 14.8875 6.06799 14.7 6.18799Z" fill="white"/>
</g>
<defs>
<clipPath id="clip0_1642_9672">
<rect width="18" height="18" fill="white" transform="translate(0 0.000488281)"/>
</clipPath>
</defs>
</svg>
