<svg width="18" height="18" viewBox="0 0 18 18" fill="none" xmlns="http://www.w3.org/2000/svg">
<path d="M9.00033 6.65697C7.71009 6.65697 6.65716 7.7099 6.65716 9.00013C6.65716 10.2904 7.71009 11.3433 9.00033 11.3433C10.2906 11.3433 11.3435 10.2904 11.3435 9.00013C11.3435 7.7099 10.2906 6.65697 9.00033 6.65697ZM16.0281 9.00013C16.0281 8.02982 16.0369 7.0683 15.9824 6.09974C15.9279 4.97474 15.6712 3.9763 14.8486 3.15365C14.0242 2.32923 13.0275 2.07435 11.9025 2.01986C10.9322 1.96537 9.97064 1.97416 9.00208 1.97416C8.03177 1.97416 7.07025 1.96537 6.1017 2.01986C4.97669 2.07435 3.97826 2.33099 3.1556 3.15365C2.33119 3.97806 2.0763 4.97474 2.02181 6.09974C1.96732 7.07005 1.97611 8.03158 1.97611 9.00013C1.97611 9.96869 1.96732 10.932 2.02181 11.9005C2.0763 13.0255 2.33294 14.024 3.1556 14.8466C3.98002 15.671 4.97669 15.9259 6.1017 15.9804C7.07201 16.0349 8.03353 16.0261 9.00208 16.0261C9.9724 16.0261 10.9339 16.0349 11.9025 15.9804C13.0275 15.9259 14.0259 15.6693 14.8486 14.8466C15.673 14.0222 15.9279 13.0255 15.9824 11.9005C16.0386 10.932 16.0281 9.97044 16.0281 9.00013ZM9.00033 12.6054C7.00521 12.6054 5.39505 10.9952 5.39505 9.00013C5.39505 7.00501 7.00521 5.39486 9.00033 5.39486C10.9954 5.39486 12.6056 7.00501 12.6056 9.00013C12.6056 10.9952 10.9954 12.6054 9.00033 12.6054ZM12.7533 6.08919C12.2874 6.08919 11.9113 5.71302 11.9113 5.2472C11.9113 4.78138 12.2874 4.40521 12.7533 4.40521C13.2191 4.40521 13.5953 4.78138 13.5953 5.2472C13.5954 5.35781 13.5737 5.46736 13.5314 5.56958C13.4892 5.6718 13.4272 5.76468 13.3489 5.84289C13.2707 5.9211 13.1779 5.98312 13.0756 6.02538C12.9734 6.06765 12.8639 6.08933 12.7533 6.08919Z" fill="white"/>
</svg>
