<svg width="19" height="19" viewBox="0 0 19 19" fill="none" xmlns="http://www.w3.org/2000/svg">
<path fill-rule="evenodd" clip-rule="evenodd" d="M7.2527 6.89983H10.1096V8.32291C10.5212 7.50445 11.5765 6.76906 13.1619 6.76906C16.2012 6.76906 16.9227 8.39829 16.9227 11.3875V16.9237H13.8458V12.0683C13.8458 10.366 13.4342 9.40599 12.3865 9.40599C10.9335 9.40599 10.3296 10.4406 10.3296 12.0675V16.9237H7.2527V6.89983ZM1.97655 16.7929H5.05347V6.76906H1.97655V16.7929ZM5.49424 3.5006C5.49435 3.7585 5.44321 4.01386 5.34377 4.25182C5.24433 4.48978 5.09859 4.70561 4.91501 4.88676C4.54301 5.25647 4.03948 5.46341 3.51501 5.46214C2.99146 5.46179 2.48909 5.25537 2.11655 4.88752C1.93363 4.70576 1.78838 4.4897 1.68912 4.2517C1.58986 4.01371 1.53853 3.75847 1.53809 3.5006C1.53809 2.97983 1.74578 2.48137 2.11732 2.11368C2.48954 1.74534 2.99212 1.53883 3.51578 1.53906C4.04039 1.53906 4.54347 1.74599 4.91501 2.11368C5.28578 2.48137 5.49424 2.97983 5.49424 3.5006Z" fill="white"/>
</svg>
