<svg width="14" height="14" viewBox="0 0 14 14" fill="none" xmlns="http://www.w3.org/2000/svg">
<path d="M12.4225 9.44531L10.5175 9.22781C10.06 9.17531 9.61003 9.33281 9.28753 9.65531L7.90753 11.0353C5.78503 9.95531 4.04503 8.22281 2.96503 6.09281L4.35253 4.70531C4.67503 4.38281 4.83253 3.93281 4.78003 3.47531L4.56253 1.58531C4.47253 0.827813 3.83503 0.257812 3.07003 0.257812H1.77253C0.925031 0.257812 0.22003 0.962812 0.27253 1.81031C0.67003 8.21531 5.79253 13.3303 12.19 13.7278C13.0375 13.7803 13.7425 13.0753 13.7425 12.2278V10.9303C13.75 10.1728 13.18 9.53531 12.4225 9.44531Z" fill="white"/>
</svg>
