<svg width="19" height="19" viewBox="0 0 19 19" fill="none" xmlns="http://www.w3.org/2000/svg">
<path d="M16.971 5.33894C16.879 4.99646 16.6988 4.68414 16.4482 4.43324C16.1976 4.18233 15.8855 4.00164 15.5431 3.90925C14.2829 3.57031 9.23122 3.57031 9.23122 3.57031C9.23122 3.57031 4.17954 3.57031 2.91932 3.90745C2.57681 3.99954 2.26456 4.18013 2.01392 4.43108C1.76329 4.68203 1.58309 4.99451 1.49144 5.33714C1.1543 6.59916 1.1543 9.23137 1.1543 9.23137C1.1543 9.23137 1.1543 11.8636 1.49144 13.1238C1.67713 13.8197 2.22521 14.3678 2.91932 14.5535C4.17954 14.8924 9.23122 14.8924 9.23122 14.8924C9.23122 14.8924 14.2829 14.8924 15.5431 14.5535C16.239 14.3678 16.7853 13.8197 16.971 13.1238C17.3081 11.8636 17.3081 9.23137 17.3081 9.23137C17.3081 9.23137 17.3081 6.59916 16.971 5.33894ZM7.62665 11.6472V6.8155L11.8093 9.21334L7.62665 11.6472Z" fill="white"/>
</svg>
