<svg width="26" height="32" viewBox="0 0 26 32" fill="none" xmlns="http://www.w3.org/2000/svg">
<path d="M9.23523 0H11.1176V3.76471H9.23523V0Z" fill="#25909C"/>
<path d="M12.9958 3.86475L15.6575 1.2031L16.9883 2.53392L14.3267 5.19557L12.9958 3.86475Z" fill="#25909C"/>
<path d="M3.36084 2.5332L4.69166 1.20238L7.35331 3.86403L6.02249 5.19485L3.36084 2.5332Z" fill="#25909C"/>
<path d="M24.6839 18.0438C23.949 17.3088 22.7576 17.3087 22.0224 18.0432L22.6874 17.3782C23.4225 16.6431 23.4225 15.4513 22.6874 14.7162C21.9525 13.9812 20.7609 13.981 20.0258 14.7157L20.6909 14.0506C21.426 13.3155 21.426 12.1237 20.6909 11.3885C19.956 10.6535 18.7645 10.6534 18.0294 11.388L23.3529 6.06449C24.088 5.32943 24.088 4.13758 23.3529 3.40246C22.6178 2.66728 21.4259 2.66728 20.6909 3.40246L8.75078 15.3621C8.75078 15.3621 4.84641 8.61827 1.43012 12.0346L0.764648 12.7001L2.983 14.9184C5.06576 17.0012 5.06576 20.3782 2.983 22.4609L2.0956 23.3483L10.7473 31.9999L12.7439 30.0034L16.1674 28.5362C16.9833 28.1865 17.7249 27.6844 18.3525 27.0567L24.6839 20.7058C25.419 19.9707 25.419 18.7789 24.6839 18.0438Z" fill="#25909C"/>
</svg>
