<svg width="32" height="32" viewBox="0 0 32 32" fill="none" xmlns="http://www.w3.org/2000/svg">
<g clip-path="url(#clip0_2254_161)">
<path d="M16.9375 2.9375C16.9375 2.41968 16.5178 2 16 2C15.4822 2 15.0625 2.41968 15.0625 2.9375V6.9541C15.0625 7.47192 15.4822 7.8916 16 7.8916C16.5178 7.8916 16.9375 7.47192 16.9375 6.9541V2.9375Z" fill="#25909C"/>
<path d="M11.3203 8.62109C11.5032 8.80396 11.7432 8.89575 11.9832 8.89575C12.2229 8.89575 12.4629 8.8042 12.646 8.62109C13.012 8.25488 13.012 7.66138 12.646 7.29517L10.6375 5.28687C10.2715 4.92065 9.67798 4.92065 9.31177 5.28687C8.94556 5.65308 8.94556 6.24658 9.31177 6.61279L11.3203 8.62109Z" fill="#25909C"/>
<path d="M20.0166 8.89551C20.2566 8.89551 20.4966 8.80396 20.6794 8.62085L22.688 6.61255C23.054 6.24658 23.054 5.65283 22.688 5.28687C22.3218 4.92065 21.7283 4.92065 21.3621 5.28687L19.3538 7.29517C18.9875 7.66138 18.9875 8.25488 19.3538 8.62085C19.5369 8.80396 19.7769 8.89551 20.0166 8.89551Z" fill="#25909C"/>
<path d="M13.2878 11.0569C13.2781 11.065 13.2688 11.0728 13.26 11.0801L9.20679 14.5547C8.8313 14.8765 8.35132 15.054 7.8562 15.054H4.95312C2.21753 15.054 0 17.2676 0 20.0071V29.0459C0 29.5635 0.419678 29.9834 0.9375 29.9834H8.9707C9.48877 29.9834 9.9082 29.5632 9.9082 29.0459V20.4395L14.6787 16.3504C14.9224 16.1416 15.0625 15.8367 15.0625 15.5159V11.9165C15.0625 11.001 13.999 10.4802 13.2878 11.0569Z" fill="#25909C"/>
<path d="M27.0469 15.054H24.1438C23.6487 15.054 23.1687 14.8765 22.7932 14.5545L18.74 11.0801C18.7312 11.0728 18.7219 11.065 18.7122 11.0569C18.001 10.4802 16.9375 11.001 16.9375 11.9165V15.5159C16.9375 15.8367 17.0776 16.1416 17.3213 16.3504L22.0918 20.4395V29.0457C22.0918 29.5632 22.5112 29.9832 23.0293 29.9832H31.0625C31.5803 29.9832 32 29.5635 32 29.0457V20.0071C32 17.2676 29.7825 15.054 27.0469 15.054Z" fill="#25909C"/>
<path d="M8.90405 11.1038C8.90405 8.92578 7.13208 7.15381 4.9541 7.15381C2.77612 7.15381 1.00415 8.92578 1.00415 11.1038C1.00415 13.282 2.77612 15.054 4.9541 15.054C7.13208 15.054 8.90405 13.282 8.90405 11.1038Z" fill="#25909C"/>
<path d="M30.9958 11.1038C30.9958 8.92578 29.2239 7.15381 27.0459 7.15381C24.8679 7.15381 23.0959 8.92578 23.0959 11.1038C23.0959 13.282 24.8679 15.054 27.0459 15.054C29.2239 15.054 30.9958 13.282 30.9958 11.1038Z" fill="#25909C"/>
</g>
<defs>
<clipPath id="clip0_2254_161">
<rect width="32" height="32" fill="white"/>
</clipPath>
</defs>
</svg>
