<svg width="26" height="30" viewBox="0 0 26 30" fill="none" xmlns="http://www.w3.org/2000/svg">
<path d="M25.2747 4.99123C21.2422 3.96553 17.2888 2.65057 13.4453 1.05656C13.3067 0.988823 13.1543 0.953613 13 0.953613C12.8457 0.953613 12.6933 0.988823 12.5547 1.05656C8.71119 2.65057 4.75784 3.96553 0.725333 4.99123C0.516406 5.05091 0.332601 5.17702 0.20173 5.35047C0.0708598 5.52392 4.47995e-05 5.73528 0 5.95256V14.1072C0.000126516 16.6638 0.683657 19.1738 1.97981 21.3775C3.27596 23.5811 5.13762 25.3982 7.372 26.6406L11.2187 28.7739C11.7626 29.079 12.3757 29.2392 12.9993 29.2392C13.6229 29.2392 14.2361 29.079 14.78 28.7739L18.628 26.6406C20.8624 25.3982 22.724 23.5811 24.0202 21.3775C25.3163 19.1738 25.9999 16.6638 26 14.1072V5.95256C26 5.73528 25.9291 5.52392 25.7983 5.35047C25.6674 5.17702 25.4836 5.05091 25.2747 4.99123ZM17.7067 11.9926L12.3733 17.3259C12.2807 17.4189 12.1705 17.4928 12.0493 17.5431C11.928 17.5935 11.798 17.6195 11.6667 17.6195C11.5354 17.6195 11.4053 17.5935 11.2841 17.5431C11.1628 17.4928 11.0527 17.4189 10.96 17.3259L8.29333 14.6592C8.11669 14.4697 8.02053 14.2189 8.0251 13.9599C8.02967 13.7008 8.13462 13.4536 8.31784 13.2704C8.50106 13.0872 8.74824 12.9822 9.0073 12.9777C9.26637 12.9731 9.5171 13.0693 9.70667 13.2459L11.6667 15.2046L16.2933 10.5792C16.4829 10.4026 16.7336 10.3064 16.9927 10.311C17.2518 10.3156 17.4989 10.4205 17.6822 10.6037C17.8654 10.787 17.9703 11.0341 17.9749 11.2932C17.9795 11.5523 17.8833 11.803 17.7067 11.9926Z" fill="#25909C"/>
</svg>
