<svg width="32" height="33" viewBox="0 0 32 33" fill="none" xmlns="http://www.w3.org/2000/svg">
<path d="M30.4049 9.33361L22.9527 1.88148C22.4727 1.40148 21.697 1.40148 21.217 1.88148L18.0849 5.01845C18.5891 4.90209 19.137 5.0427 19.5297 5.43542C20.2085 6.11421 20.1309 7.25361 19.3018 7.83058C18.7879 8.18452 18.08 8.18936 17.5661 7.84027C16.9939 7.45239 16.7709 6.793 16.9067 6.19664L13.7746 9.32876C13.2946 9.80876 13.2946 10.5845 13.7746 11.0645L16.9067 14.2015C16.7952 13.7021 16.9309 13.1494 17.3236 12.7566C18.0073 12.073 19.1612 12.1603 19.7236 12.9942C20.0727 13.5082 20.0727 14.216 19.7236 14.73C19.3358 15.2972 18.6764 15.5154 18.0897 15.3797L21.2218 18.5118C21.7018 18.9918 22.4776 18.9918 22.9576 18.5118L26.0897 15.3797C25.9491 15.976 26.1721 16.6306 26.7491 17.0233C27.263 17.3724 27.9709 17.3675 28.4849 17.0136C29.3139 16.4415 29.3915 15.2972 28.7127 14.6185C28.32 14.2257 27.7721 14.0851 27.2679 14.2015L30.4 11.0694C30.8849 10.5894 30.8849 9.81361 30.4049 9.33361Z" fill="#25909C"/>
<path d="M15.0933 18.371C15.68 18.5067 16.3394 18.2886 16.7273 17.7213C17.0764 17.2074 17.0764 16.4995 16.7273 15.9855C16.16 15.1467 15.0061 15.0643 14.3273 15.748C13.9345 16.1407 13.7988 16.6934 13.9103 17.1928L10.7782 14.0607C10.2982 13.5807 9.52241 13.5807 9.04241 14.0607L5.91029 17.1928C6.02666 16.6886 5.88605 16.1407 5.49332 15.748C4.81454 15.0692 3.67514 15.1467 3.09817 15.9758C2.74423 16.4898 2.73938 17.1977 3.08848 17.7116C3.47635 18.2837 4.13575 18.5067 4.73211 18.371L1.59999 21.508C1.11999 21.988 1.11999 22.7637 1.59999 23.2437L9.05211 30.6958C9.53211 31.1758 10.3079 31.1758 10.7879 30.6958L13.92 27.5637C13.7794 28.1601 14.0024 28.8146 14.5794 29.2074C15.0933 29.5564 15.8012 29.5516 16.3151 29.1977C17.1442 28.6255 17.2218 27.4813 16.543 26.8025C16.1503 26.4098 15.6024 26.2692 15.0982 26.3855L18.2303 23.2534C18.7103 22.7734 18.7103 21.9977 18.2303 21.5177L15.0933 18.371Z" fill="#25909C"/>
<path d="M23.5152 23.1179C23.3261 22.9288 23.0206 22.9288 22.8315 23.1179C22.6424 23.307 22.6424 23.6124 22.8315 23.8015L24.3297 25.2997C24.4267 25.3967 24.5479 25.4403 24.6739 25.4403C24.8 25.4403 24.9212 25.3918 25.0182 25.2997C25.2073 25.1106 25.2073 24.8052 25.0182 24.6161L23.5152 23.1179Z" fill="#25909C"/>
<path d="M26.8558 22.1965L24.6206 21.7989C24.3588 21.7505 24.1067 21.9298 24.0582 22.1917C24.0097 22.4535 24.1891 22.7056 24.4509 22.7541L26.6861 23.1517C26.7152 23.1565 26.7443 23.1614 26.7734 23.1614C27.0061 23.1614 27.2097 22.9965 27.2485 22.7589C27.2922 22.4971 27.1176 22.245 26.8558 22.1965Z" fill="#25909C"/>
<path d="M21.9054 24.3446C21.6436 24.3931 21.4642 24.6452 21.5127 24.907L21.9103 27.1421C21.9539 27.3749 22.1575 27.5446 22.3854 27.5446C22.4145 27.5446 22.4436 27.5446 22.4727 27.5349C22.7345 27.4864 22.9139 27.2343 22.8654 26.9725L22.4678 24.7373C22.4242 24.4755 22.1721 24.3009 21.9054 24.3446Z" fill="#25909C"/>
<path d="M8.48488 9.45498C8.58185 9.55195 8.70306 9.59559 8.82912 9.59559C8.95519 9.59559 9.0764 9.54711 9.17337 9.45498C9.36246 9.26589 9.36246 8.96044 9.17337 8.77135L7.67519 7.27317C7.4861 7.08407 7.18064 7.08407 6.99155 7.27317C6.80246 7.46226 6.80246 7.76771 6.99155 7.9568L8.48488 9.45498Z" fill="#25909C"/>
<path d="M10.0072 8.23282C10.0363 8.23282 10.0654 8.23282 10.0945 8.22313C10.3563 8.17464 10.5357 7.92252 10.4872 7.6607L10.0897 5.42555C10.0412 5.16373 9.78905 4.98434 9.52724 5.03282C9.26542 5.08131 9.08602 5.33343 9.13451 5.59525L9.53208 7.8304C9.57087 8.06798 9.77451 8.23282 10.0072 8.23282Z" fill="#25909C"/>
<path d="M5.14428 10.3762L7.37943 10.7737C7.40853 10.7786 7.43762 10.7834 7.46671 10.7834C7.69943 10.7834 7.90307 10.6186 7.94186 10.381C7.99034 10.1192 7.81095 9.86707 7.54913 9.81858L5.31398 9.42101C5.05216 9.37252 4.80004 9.55192 4.75156 9.81373C4.70792 10.0756 4.88246 10.3277 5.14428 10.3762Z" fill="#25909C"/>
</svg>
