<svg width="20" height="20" viewBox="0 0 20 20" fill="none" xmlns="http://www.w3.org/2000/svg">
<path d="M18 18.0001V12.1401C18 9.26006 17.38 7.06006 14.02 7.06006C12.4 7.06006 11.32 7.94006 10.88 8.78006H10.84V7.32006H7.66003V18.0001H10.98V12.7001C10.98 11.3001 11.24 9.96006 12.96 9.96006C14.66 9.96006 14.68 11.5401 14.68 12.7801V17.9801H18V18.0001Z" fill="#BFBFBF"/>
<path d="M2.26001 7.32007H5.58001V18.0001H2.26001V7.32007Z" fill="#BFBFBF"/>
<path d="M3.92 2C2.86 2 2 2.86 2 3.92C2 4.98 2.86 5.86 3.92 5.86C4.98 5.86 5.84 4.98 5.84 3.92C5.84 2.86 4.98 2 3.92 2Z" fill="#BFBFBF"/>
</svg>
